<svg width="59" height="61" viewBox="0 0 59 61" xmlns="http://www.w3.org/2000/svg">
    <path d="M32.8 7.702C46.165 7.702 57 18.94 57 32.8c0 13.862-10.835 25.098-24.2 25.098-13.365 0-24.2-11.236-24.2-25.098 0-.78.034-1.551.101-2.313.331.021.664.032.999.032 9.113 0 16.5-7.662 16.5-17.113 0-1.585-.208-3.12-.597-4.576A23.408 23.408 0 0 1 32.8 7.702zm3.129 12.55-4.264.019L24 41.695l3.33 3.029 11.035-5.364 1.809 5.134 3.777-1.416-8.022-22.827zm-4.02.697.224.718-6.984 19.53-.569.273 7.328-20.52zm.467 1.397.224.698-6.31 17.609-.557.266 6.643-18.573zm.449 1.396.224.679-5.624 15.69-.586.279 5.986-16.648zm.467 1.377.224.698-4.954 13.75-.562.268 5.292-14.716zm.51 1.287 3.181 9.03-7.84 3.852 4.66-12.882zM9.477 8.101v15.241H6.06V8.101h3.416zM5.387 6.874v15.242H1.972V6.874h3.415zm8.065-.706v15.241h-3.416V6.168h3.416zm3.976-2.698v15.242h-3.416V3.47h3.416z" fill="#323232" fill-rule="evenodd"/>
</svg>
